<svg width="40" height="40" viewBox="0 0 40 40" fill="none" xmlns="http://www.w3.org/2000/svg">
<path d="M3.33366 38.3332H16.667C17.109 38.3332 17.533 38.1575 17.8455 37.845C18.158 37.5325 18.3337 37.1085 18.3337 36.6665V3.33317C18.3337 2.89114 18.158 2.46722 17.8455 2.15465C17.533 1.8421 17.109 1.6665 16.667 1.6665H3.33366C2.89163 1.6665 2.46771 1.8421 2.15514 2.15465C1.84259 2.46722 1.66699 2.89114 1.66699 3.33317V36.6665C1.66699 37.1085 1.84259 37.5325 2.15514 37.845C2.46771 38.1575 2.89163 38.3332 3.33366 38.3332ZM15.0003 4.99984V34.9998H5.00033V31.6665H10.0003C10.4424 31.6665 10.8663 31.4908 11.1788 31.1783C11.4914 30.8658 11.667 30.4418 11.667 29.9998C11.667 29.5578 11.4914 29.1338 11.1788 28.8213C10.8663 28.5088 10.4424 28.3332 10.0003 28.3332H5.00033V24.9998H10.0003C10.4424 24.9998 10.8663 24.8242 11.1788 24.5117C11.4914 24.1992 11.667 23.7752 11.667 23.3332C11.667 22.8912 11.4914 22.4672 11.1788 22.1547C10.8663 21.8422 10.4424 21.6665 10.0003 21.6665H5.00033V18.3332H10.0003C10.4424 18.3332 10.8663 18.1575 11.1788 17.845C11.4914 17.5325 11.667 17.1085 11.667 16.6665C11.667 16.2245 11.4914 15.8006 11.1788 15.488C10.8663 15.1754 10.4424 14.9998 10.0003 14.9998H5.00033V11.6665H10.0003C10.4424 11.6665 10.8663 11.4909 11.1788 11.1784C11.4914 10.8658 11.667 10.4419 11.667 9.99984C11.667 9.5578 11.4914 9.13389 11.1788 8.82132C10.8663 8.50877 10.4424 8.33317 10.0003 8.33317H5.00033V4.99984H15.0003ZM38.3337 28.3332V3.33317C38.3337 2.89114 38.158 2.46722 37.8455 2.15465C37.533 1.8421 37.109 1.6665 36.667 1.6665H26.667C26.225 1.6665 25.801 1.8421 25.4885 2.15465C25.176 2.46722 25.0003 2.89114 25.0003 3.33317V28.3332C25.0005 28.6357 25.0828 28.9323 25.2387 29.1915L30.2387 37.5248C30.3868 37.7713 30.5962 37.9752 30.8465 38.1167C31.0968 38.2582 31.3795 38.3327 31.667 38.3327C31.9545 38.3327 32.2372 38.2582 32.4875 38.1167C32.7378 37.9752 32.9472 37.7713 33.0953 37.5248L38.0953 29.1915C38.2512 28.9323 38.3335 28.6357 38.3337 28.3332ZM35.0003 4.99984V8.33317H28.3337V4.99984H35.0003ZM31.667 33.4265L28.3337 27.8715V11.6665H35.0003V27.8715L31.667 33.4265Z" fill="black"/>
</svg>
